<svg xmlns="http://www.w3.org/2000/svg" width="1024" height="1024" viewBox="0 0 1024 1024"><defs><linearGradient id="b" x1="0" y1="0" x2="1" y2="1"><stop offset="0" stop-color="#1689e8"/><stop offset="1" stop-color="#063a86"/></linearGradient></defs><rect x="16" y="16" width="992" height="992" rx="190" fill="url(#b)"/><g transform="translate(150 145)"><path d="M80 210 Q240 120 400 210 L400 510 Q240 430 80 510Z" fill="#fff"/><path d="M400 210 Q560 120 720 210 L720 510 Q560 430 400 510Z" fill="#f7fbff"/><path d="M400 210 L400 510" stroke="#8ab5dd" stroke-width="8"/><g fill="#44b878"><rect x="125" y="260" width="90" height="28" rx="8"/><rect x="125" y="315" width="120" height="28" rx="8"/><rect x="125" y="370" width="100" height="28" rx="8"/></g><g fill="#75b7e8"><rect x="460" y="270" width="160" height="20" rx="8"/><rect x="460" y="315" width="140" height="20" rx="8"/><rect x="460" y="360" width="155" height="20" rx="8"/></g></g><g transform="translate(270 105)"><path d="M0 90 L220 0 L440 90 L220 180Z" fill="#0b2b5c"/><path d="M220 180 L220 260 Q220 300 265 320 L175 320 Q220 300 220 260" fill="#0b2b5c"/><path d="M400 90 L400 205" stroke="#f5c542" stroke-width="14" stroke-linecap="round"/><circle cx="400" cy="220" r="18" fill="#f5c542"/></g><g transform="translate(530 380)"><rect width="250" height="185" rx="24" fill="#fff"/><rect width="250" height="48" rx="24" fill="#ef5350"/><g fill="#9fd0ef"><rect x="25" y="65" width="32" height="28" rx="5"/><rect x="77" y="65" width="32" height="28" rx="5"/><rect x="129" y="65" width="32" height="28" rx="5"/><rect x="181" y="65" width="32" height="28" rx="5"/><rect x="25" y="113" width="32" height="28" rx="5"/><rect x="77" y="113" width="32" height="28" rx="5"/><rect x="129" y="113" width="32" height="28" rx="5"/><rect x="181" y="113" width="32" height="28" rx="5"/><rect x="25" y="161" width="32" height="28" rx="5"/><rect x="77" y="161" width="32" height="28" rx="5"/><rect x="129" y="161" width="32" height="28" rx="5"/><rect x="181" y="161" width="32" height="28" rx="5"/></g><circle cx="205" cy="78" r="12" fill="#2e7d32"/></g><g transform="rotate(-35 420 500)"><rect x="355" y="470" width="55" height="240" rx="12" fill="#f7c75b"/><rect x="355" y="470" width="55" height="55" fill="#ef5350"/><path d="M355 710 L410 710 L382 760Z" fill="#e5c7a2"/><path d="M382 760 L397 735 L367 735Z" fill="#333"/></g><g transform="translate(735 185)"><circle cx="0" cy="0" r="88" fill="#fff" opacity=".95"/><circle cx="0" cy="0" r="72" fill="none" stroke="#b9d9f2" stroke-width="10"/><path d="M0 -45 V0 L35 22" fill="none" stroke="#16385f" stroke-width="12" stroke-linecap="round" stroke-linejoin="round"/><circle cx="0" cy="0" r="8" fill="#16385f"/></g><text x="512" y="875" text-anchor="middle" font-family="Arial, sans-serif" font-size="82" font-weight="700" fill="#fff">Öğretmen</text><text x="512" y="950" text-anchor="middle" font-family="Arial, sans-serif" font-size="82" font-weight="700" fill="#fff">Ajanda<tspan fill="#ffd22e">Pro</tspan></text></svg>